<svg width="1000" height="1000" viewBox="0 0 1000 1000" fill="none" xmlns="http://www.w3.org/2000/svg">
<g filter="url(#filter0_d_1_2)">
<rect x="75" y="75" width="850" height="850" rx="250" fill="#60FF60"/>
</g>
<path d="M397.795 493L393.84 471.467H392.375C382.121 487.775 365.812 495.93 343.449 495.93C305.266 495.93 286.174 476.35 286.174 437.189V332.16H312.834V435.725C312.834 461.115 324.357 473.811 347.404 473.811C363.127 473.811 374.602 469.318 381.828 460.334C389.055 451.252 392.668 436.359 392.668 415.656V332.16H419.328V493H397.795ZM539.844 493V389.436C539.844 364.045 528.223 351.35 504.98 351.35C475 351.35 460.01 370.783 460.01 409.65V493H433.35V332.16H454.883L458.838 353.84H460.303C470.361 337.434 486.768 329.23 509.521 329.23C547.51 329.23 566.504 348.811 566.504 387.971V493H539.844ZM649.812 265.949C660.164 265.949 665.34 271.516 665.34 282.648C665.34 288.312 663.777 292.561 660.652 295.393C657.625 298.127 654.012 299.494 649.812 299.494C639.363 299.494 634.139 293.879 634.139 282.648C634.139 271.516 639.363 265.949 649.812 265.949ZM636.336 353.254L596.932 350.178V332.16H662.996V472.053L714.559 474.982V493H585.945V474.982L636.336 472.053V353.254ZM145.297 704.822V680.506C164.145 688.904 182.211 693.104 199.496 693.104C226.352 693.104 239.779 685.193 239.779 669.373C239.779 663.807 237.387 658.973 232.602 654.871C227.816 650.77 216.781 645.594 199.496 639.344C176.742 630.848 162.387 623.084 156.43 616.053C150.57 608.924 147.641 600.525 147.641 590.857C147.641 577.576 153.061 567.176 163.9 559.656C174.838 552.039 189.926 548.23 209.164 548.23C228.5 548.23 246.518 551.844 263.217 559.07L254.428 580.896C236.654 573.865 221.078 570.35 207.699 570.35C184.652 570.35 173.129 576.844 173.129 589.832C173.129 595.789 175.57 600.574 180.453 604.188C185.434 607.703 196.811 612.635 214.584 618.982C235.189 626.502 248.861 633.924 255.6 641.248C262.436 648.475 265.854 657.361 265.854 667.908C265.854 682.557 260.141 694.08 248.715 702.479C237.289 710.779 221.127 714.93 200.229 714.93C176.01 714.93 157.699 711.561 145.297 704.822ZM412.15 690.027V710.242C399.455 713.367 387.15 714.93 375.236 714.93C339.885 714.93 322.209 698.133 322.209 664.539V571.229H283.098V557.459L322.209 550.281L333.488 508.24H348.869V551.16H413.029V571.229H348.869V664.539C348.869 683.582 358.244 693.104 376.994 693.104C386.076 693.104 397.795 692.078 412.15 690.027ZM570.459 636.707H457.08C457.861 673.328 474.658 691.639 507.471 691.639C526.514 691.639 544.58 687.928 561.67 680.506V703.943C545.459 711.268 527.686 714.93 508.35 714.93C484.424 714.93 465.283 707.654 450.928 693.104C436.572 678.455 429.395 658.338 429.395 632.752C429.395 606.775 435.986 586.219 449.17 571.082C462.451 555.848 480.176 548.23 502.344 548.23C523.047 548.23 539.551 554.773 551.855 567.859C564.258 580.945 570.459 598.377 570.459 620.154V636.707ZM457.666 615.027H541.602C541.602 585.242 528.32 570.35 501.758 570.35C474.902 570.35 460.205 585.242 457.666 615.027ZM687.02 712V608.436C687.02 583.045 675.398 570.35 652.156 570.35C622.176 570.35 607.186 589.783 607.186 628.65V712H580.525V551.16H602.059L606.014 572.84H607.479C617.537 556.434 633.943 548.23 656.697 548.23C694.686 548.23 713.68 567.811 713.68 606.971V712H687.02ZM793.619 714.93C772.525 714.93 755.143 707.361 741.471 692.225C727.896 676.99 721.109 656.678 721.109 631.287C721.109 605.604 727.701 585.34 740.885 570.496C754.166 555.652 772.037 548.23 794.498 548.23C815.787 548.23 833.219 555.799 846.793 570.936C860.367 586.072 867.154 606.189 867.154 631.287C867.154 657.166 860.465 677.576 847.086 692.518C833.707 707.459 815.885 714.93 793.619 714.93ZM794.205 692.811C824.479 692.811 839.615 672.303 839.615 631.287C839.615 590.662 824.381 570.35 793.912 570.35C763.736 570.35 748.648 590.662 748.648 631.287C748.648 672.303 763.834 692.811 794.205 692.811Z" fill="black"/>
<defs>
<filter id="filter0_d_1_2" x="41.6" y="45.6" width="916.8" height="916.8" filterUnits="userSpaceOnUse" color-interpolation-filters="sRGB">
<feFlood flood-opacity="0" result="BackgroundImageFix"/>
<feColorMatrix in="SourceAlpha" type="matrix" values="0 0 0 0 0 0 0 0 0 0 0 0 0 0 0 0 0 0 127 0" result="hardAlpha"/>
<feMorphology radius="23" operator="dilate" in="SourceAlpha" result="effect1_dropShadow_1_2"/>
<feOffset dy="4"/>
<feGaussianBlur stdDeviation="5.2"/>
<feComposite in2="hardAlpha" operator="out"/>
<feColorMatrix type="matrix" values="0 0 0 0 0 0 0 0 0 0 0 0 0 0 0 0 0 0 1 0"/>
<feBlend mode="normal" in2="BackgroundImageFix" result="effect1_dropShadow_1_2"/>
<feBlend mode="normal" in="SourceGraphic" in2="effect1_dropShadow_1_2" result="shape"/>
</filter>
</defs>
</svg>
